# xmcd CD database file
#
# Track frame offsets:
#	150
#	33082
#	37647
#	113837
#	150137
#	204112
#	279102
#
# Disc length: 4231 seconds
#
# Revision: 0
# Processed by: cddbd v1.5.2PL0 Copyright (c) Steve Scherf et al.
# Submitted via: CDex 1.51
#
DISCID=3b108507
DTITLE=Ben Monder - Oceana
DYEAR=2005
DGENRE=Jazz
TTITLE0=Still Motion
TTITLE1=Light
TTITLE2=Oceana
TTITLE3=Echolalia
TTITLE4=Double Sun
TTITLE5=Rooms Of Light
TTITLE6=Spectre
EXTD=YEAR: 2005
EXTT0=
EXTT1=
EXTT2=
EXTT3=
EXTT4=
EXTT5=
EXTT6=
PLAYORDER=
